<svg width="512" height="512" viewBox="0 0 512 512" fill="none" xmlns="http://www.w3.org/2000/svg">
<path d="M171.189 186.059L199.799 359.989H400.389L413.909 212.129L171.189 186.059Z" fill="#F5F5F5"/>
<path d="M370.16 240.939C371.557 241.063 372.915 241.463 374.156 242.116C375.396 242.769 376.495 243.662 377.388 244.743C378.281 245.824 378.951 247.072 379.358 248.413C379.765 249.755 379.902 251.164 379.76 252.559L372.54 324.129C372.351 325.88 371.5 327.492 370.162 328.636C368.823 329.78 367.098 330.368 365.339 330.281C363.58 330.194 361.922 329.439 360.702 328.168C359.483 326.898 358.795 325.21 358.78 323.449L358.63 251.519C358.627 250.047 358.931 248.591 359.522 247.242C360.113 245.894 360.979 244.684 362.063 243.688C363.148 242.693 364.428 241.934 365.822 241.461C367.216 240.988 368.693 240.81 370.16 240.939Z" fill="#A9AFC4"/>
<path d="M409.61 259.209L400.39 359.999H347.49C330 314.189 361.09 264.189 409.61 259.209Z" fill="url(#paint0_linear_654_3)"/>
<path d="M313.969 444.13C323.899 444.13 331.949 436.08 331.949 426.15C331.949 416.22 323.899 408.17 313.969 408.17C304.039 408.17 295.989 416.22 295.989 426.15C295.989 436.08 304.039 444.13 313.969 444.13Z" fill="#5E6175"/>
<path d="M313.969 432.63C317.548 432.63 320.449 429.729 320.449 426.15C320.449 422.571 317.548 419.67 313.969 419.67C310.39 419.67 307.489 422.571 307.489 426.15C307.489 429.729 310.39 432.63 313.969 432.63Z" fill="#F5F5F5"/>
<path d="M136.94 444.13C146.87 444.13 154.92 436.08 154.92 426.15C154.92 416.22 146.87 408.17 136.94 408.17C127.01 408.17 118.96 416.22 118.96 426.15C118.96 436.08 127.01 444.13 136.94 444.13Z" fill="#5E6175"/>
<path d="M136.94 432.63C140.519 432.63 143.42 429.729 143.42 426.15C143.42 422.571 140.519 419.67 136.94 419.67C133.361 419.67 130.46 422.571 130.46 426.15C130.46 429.729 133.361 432.63 136.94 432.63Z" fill="#F5F5F5"/>
<path d="M136.939 447.14C132.786 447.14 128.726 445.908 125.272 443.6C121.819 441.293 119.127 438.013 117.538 434.176C115.949 430.339 115.533 426.116 116.343 422.043C117.153 417.969 119.153 414.227 122.09 411.29C125.027 408.353 128.769 406.353 132.843 405.543C136.916 404.733 141.139 405.149 144.976 406.738C148.813 408.328 152.093 411.019 154.4 414.473C156.708 417.926 157.939 421.986 157.939 426.14C157.939 431.709 155.727 437.051 151.789 440.989C147.85 444.927 142.509 447.14 136.939 447.14ZM136.939 411.14C133.973 411.14 131.073 412.019 128.606 413.668C126.139 415.316 124.217 417.658 123.081 420.399C121.946 423.14 121.649 426.156 122.228 429.066C122.806 431.976 124.235 434.648 126.333 436.746C128.431 438.844 131.103 440.273 134.013 440.851C136.923 441.43 139.939 441.133 142.68 439.998C145.421 438.862 147.763 436.94 149.412 434.473C151.06 432.006 151.939 429.106 151.939 426.14C151.932 422.167 150.348 418.359 147.535 415.552C144.723 412.746 140.913 411.17 136.939 411.17V411.14ZM313.999 447.14C309.846 447.14 305.786 445.908 302.333 443.6C298.879 441.293 296.187 438.013 294.598 434.176C293.009 430.339 292.593 426.116 293.403 422.043C294.213 417.969 296.213 414.227 299.15 411.29C302.087 408.353 305.829 406.353 309.903 405.543C313.976 404.733 318.199 405.149 322.036 406.738C325.873 408.328 329.153 411.019 331.46 414.473C333.768 417.926 334.999 421.986 334.999 426.14C334.999 431.709 332.787 437.051 328.849 440.989C324.91 444.927 319.569 447.14 313.999 447.14ZM313.999 411.14C311.033 411.14 308.133 412.019 305.666 413.668C303.199 415.316 301.277 417.658 300.141 420.399C299.006 423.14 298.709 426.156 299.288 429.066C299.866 431.976 301.295 434.648 303.393 436.746C305.491 438.844 308.163 440.273 311.073 440.851C313.983 441.43 316.999 441.133 319.74 439.998C322.481 438.862 324.823 436.94 326.472 434.473C328.12 432.006 328.999 429.106 328.999 426.14C328.992 422.167 327.408 418.359 324.595 415.552C321.783 412.746 317.973 411.17 313.999 411.17V411.14ZM145.822 129.172L158.555 116.439L162.797 120.681L150.064 133.414L145.822 129.172ZM130.129 103.85H136.129V121.86H130.129V103.85ZM157.899 142.04H175.909V148.04H157.899V142.04Z" fill="#5E6175"/>
<path d="M171.19 186.059H92.96L139.9 359.989H199.8L171.19 186.059Z" fill="#F5F5F5"/>
<path d="M403.13 362.998H197.25L167.59 182.658L417.17 209.458L403.13 362.998ZM202.35 356.998H397.65L410.65 214.798L174.79 189.458L202.35 356.998Z" fill="#5E6175"/>
<path d="M203.33 362.999H137.6L89 183.059H173.7L203.33 362.999ZM142.2 356.999H196.27L168.64 189.059H96.88L142.2 356.999Z" fill="#5E6175"/>
<path d="M178.14 189.06H91.6796L53.5996 149.34H140.7L178.14 189.06ZM94.2396 183.06H164.24L138.11 155.34H67.6696L94.2396 183.06Z" fill="#5E6175"/>
<path d="M132.08 162.629H43.2896C40.6148 162.546 38.0774 161.425 36.2148 159.503C34.3521 157.581 33.3105 155.01 33.3105 152.334C33.3105 149.658 34.3521 147.087 36.2148 145.165C38.0774 143.244 40.6148 142.122 43.2896 142.039H132.08C134.755 142.122 137.292 143.244 139.155 145.165C141.017 147.087 142.059 149.658 142.059 152.334C142.059 155.01 141.017 157.581 139.155 159.503C137.292 161.425 134.755 162.546 132.08 162.629ZM43.2896 147.999C42.1864 148.052 41.1459 148.528 40.384 149.328C39.622 150.127 39.197 151.19 39.197 152.294C39.197 153.399 39.622 154.461 40.384 155.26C41.1459 156.06 42.1864 156.536 43.2896 156.589H132.08C133.183 156.536 134.223 156.06 134.985 155.26C135.747 154.461 136.172 153.399 136.172 152.294C136.172 151.19 135.747 150.127 134.985 149.328C134.223 148.528 133.183 148.052 132.08 147.999H43.2896Z" fill="#5E6175"/>
<path d="M132.08 145H43.2896C41.4016 145.07 39.6142 145.869 38.3032 147.23C36.9923 148.59 36.2598 150.406 36.2598 152.295C36.2598 154.184 36.9923 156 38.3032 157.36C39.6142 158.721 41.4016 159.52 43.2896 159.59H132.08C133.968 159.52 135.755 158.721 137.066 157.36C138.377 156 139.109 154.184 139.109 152.295C139.109 150.406 138.377 148.59 137.066 147.23C135.755 145.869 133.968 145.07 132.08 145ZM202.8 429.15H136.9V359.99H142.9V423.15H196.8V359.99H202.8V429.15Z" fill="#5E6175"/>
<path d="M375.02 429.148H196.8V359.988H202.8V423.148H375.02V429.148Z" fill="#5E6175"/>
<path d="M199.799 444.13C209.729 444.13 217.779 436.08 217.779 426.15C217.779 416.22 209.729 408.17 199.799 408.17C189.869 408.17 181.819 416.22 181.819 426.15C181.819 436.08 189.869 444.13 199.799 444.13Z" fill="#5E6175"/>
<path d="M375.03 444.13C384.96 444.13 393.01 436.08 393.01 426.15C393.01 416.22 384.96 408.17 375.03 408.17C365.1 408.17 357.05 416.22 357.05 426.15C357.05 436.08 365.1 444.13 375.03 444.13Z" fill="#5E6175"/>
<path d="M199.8 447.139C195.646 447.139 191.586 445.907 188.133 443.6C184.679 441.292 181.988 438.012 180.398 434.175C178.809 430.338 178.393 426.115 179.203 422.042C180.014 417.968 182.014 414.226 184.951 411.289C187.887 408.353 191.629 406.352 195.703 405.542C199.777 404.732 203.999 405.148 207.836 406.737C211.673 408.327 214.953 411.018 217.261 414.472C219.568 417.925 220.8 421.985 220.8 426.139C220.8 431.708 218.587 437.05 214.649 440.988C210.711 444.926 205.369 447.139 199.8 447.139ZM199.8 411.139C196.833 411.139 193.933 412.018 191.466 413.667C189 415.315 187.077 417.658 185.942 420.398C184.806 423.139 184.509 426.155 185.088 429.065C185.667 431.975 187.095 434.648 189.193 436.745C191.291 438.843 193.964 440.272 196.873 440.85C199.783 441.429 202.799 441.132 205.54 439.997C208.281 438.862 210.624 436.939 212.272 434.472C213.92 432.005 214.8 429.105 214.8 426.139C214.792 422.166 213.208 418.358 210.396 415.551C207.584 412.745 203.773 411.169 199.8 411.169V411.139ZM375 447.139C370.846 447.139 366.786 445.907 363.333 443.6C359.879 441.292 357.188 438.012 355.598 434.175C354.009 430.338 353.593 426.115 354.403 422.042C355.214 417.968 357.214 414.226 360.151 411.289C363.087 408.353 366.829 406.352 370.903 405.542C374.977 404.732 379.199 405.148 383.036 406.737C386.873 408.327 390.153 411.018 392.461 414.472C394.768 417.925 396 421.985 396 426.139C396 431.708 393.787 437.05 389.849 440.988C385.911 444.926 380.569 447.139 375 447.139ZM375 411.139C372.033 411.139 369.133 412.018 366.666 413.667C364.2 415.315 362.277 417.658 361.142 420.398C360.006 423.139 359.709 426.155 360.288 429.065C360.867 431.975 362.295 434.648 364.393 436.745C366.491 438.843 369.164 440.272 372.073 440.85C374.983 441.429 377.999 441.132 380.74 439.997C383.481 438.862 385.824 436.939 387.472 434.472C389.12 432.005 390 429.105 390 426.139C389.992 422.166 388.408 418.358 385.596 415.551C382.784 412.745 378.973 411.169 375 411.169V411.139Z" fill="#5E6175"/>
<path d="M199.74 432.63C203.319 432.63 206.22 429.729 206.22 426.15C206.22 422.571 203.319 419.67 199.74 419.67C196.161 419.67 193.26 422.571 193.26 426.15C193.26 429.729 196.161 432.63 199.74 432.63Z" fill="#F5F5F5"/>
<path d="M375.03 432.63C378.609 432.63 381.51 429.729 381.51 426.15C381.51 422.571 378.609 419.67 375.03 419.67C371.451 419.67 368.55 422.571 368.55 426.15C368.55 429.729 371.451 432.63 375.03 432.63Z" fill="#F5F5F5"/>
<path d="M235.279 227.889C238.32 228.159 241.149 229.559 243.209 231.811C245.27 234.064 246.411 237.007 246.409 240.059V323.359C246.329 325.082 245.616 326.715 244.407 327.945C243.197 329.174 241.576 329.914 239.854 330.022C238.133 330.13 236.432 329.598 235.078 328.529C233.725 327.46 232.813 325.929 232.519 324.229L222.079 241.589C221.851 239.779 222.031 237.941 222.607 236.209C223.182 234.478 224.138 232.897 225.403 231.583C226.669 230.269 228.214 229.255 229.922 228.616C231.631 227.977 233.462 227.729 235.279 227.889ZM306.219 235.169C307.824 235.313 309.386 235.771 310.814 236.518C312.241 237.265 313.508 238.287 314.541 239.524C315.574 240.761 316.352 242.189 316.833 243.728C317.313 245.266 317.485 246.884 317.339 248.489L310.459 323.939C310.419 325.796 309.644 327.56 308.303 328.845C306.962 330.13 305.166 330.829 303.309 330.789C301.453 330.749 299.688 329.974 298.403 328.633C297.119 327.292 296.419 325.496 296.459 323.639L292.879 247.999C292.791 246.247 293.079 244.496 293.725 242.865C294.372 241.234 295.36 239.76 296.625 238.544C297.89 237.328 299.401 236.397 301.056 235.815C302.711 235.233 304.472 235.012 306.219 235.169Z" fill="#A9AFC4"/>
<path d="M45.4492 441.139H375.029V447.139H45.4492V441.139Z" fill="#5E6175"/>
<path d="M250.199 175.899V169.899C251.95 170.023 253.709 169.912 255.429 169.569L256.899 175.379C254.702 175.869 252.446 176.044 250.199 175.899ZM240.199 175.899H234.199V169.899H240.199V175.899ZM266.659 168.599L261.729 165.189C262.629 163.895 263.237 162.421 263.509 160.869L269.419 161.869C269.005 164.288 268.063 166.586 266.659 168.599ZM262.099 153.319C261.279 151.973 260.182 150.817 258.879 149.929L262.259 144.929C264.283 146.301 265.988 148.091 267.259 150.179L262.099 153.319ZM251.099 148.039H245.099V142.039H251.099V148.039ZM235.099 148.039C232.922 148.153 230.738 148.052 228.579 147.739L229.649 141.829C231.456 142.07 233.28 142.14 235.099 142.039V148.039ZM218.289 142.219C216.636 140.509 215.316 138.504 214.399 136.309L219.929 133.999C220.557 135.505 221.463 136.878 222.599 138.049L218.289 142.219ZM219.289 126.019L213.439 124.689C213.966 122.367 214.926 120.165 216.269 118.199L221.269 121.579C220.31 122.909 219.611 124.409 219.209 125.999L219.289 126.019ZM227.539 116.649L225.389 110.999C227.604 110.186 229.95 109.789 232.309 109.829V115.829C230.656 115.794 229.01 116.072 227.459 116.649H227.539ZM290.389 115.849V109.849C292.183 109.967 293.983 109.89 295.759 109.619L296.979 115.499C294.776 115.867 292.539 115.985 290.309 115.849H290.389ZM280.389 115.849H274.389V109.849H280.389V115.849ZM264.389 115.849H258.389V109.849H264.389V115.849ZM248.389 115.849H242.389V109.849H248.389V115.849ZM306.999 109.129L302.209 105.509C303.176 104.261 303.859 102.818 304.209 101.279L310.069 102.559C309.535 104.946 308.487 107.188 306.999 109.129ZM304.419 91.939C304.419 91.839 303.949 91.879 310.419 91.879L304.419 91.939Z" fill="#A9AFC4"/>
<path d="M307.369 88.4598C307.369 86.6056 307.734 84.7695 308.444 83.0564C309.154 81.3432 310.194 79.7867 311.505 78.4755C312.816 77.1643 314.373 76.1243 316.086 75.4147C317.799 74.7051 319.635 74.3398 321.489 74.3398H332.359C332.359 76.195 331.994 78.0319 331.283 79.7457C330.573 81.4594 329.532 83.0164 328.22 84.3277C326.908 85.639 325.35 86.6789 323.636 87.3879C321.921 88.0969 320.084 88.4612 318.229 88.4598H307.369Z" fill="url(#paint1_linear_654_3)"/>
<path d="M307.37 88.4598C307.37 86.6056 307.005 84.7695 306.295 83.0564C305.585 81.3432 304.545 79.7867 303.234 78.4755C301.923 77.1643 300.366 76.1243 298.653 75.4147C296.94 74.7051 295.104 74.3398 293.25 74.3398H282.38C282.38 76.195 282.745 78.0319 283.456 79.7457C284.166 81.4594 285.207 83.0164 286.519 84.3277C287.831 85.639 289.389 86.6789 291.103 87.3879C292.818 88.0969 294.655 88.4612 296.51 88.4598H307.37Z" fill="url(#paint2_linear_654_3)"/>
<path d="M318.229 91.4598H304.369V88.4598C304.374 83.921 306.18 79.5695 309.389 76.36C312.599 73.1505 316.95 71.3451 321.489 71.3398H335.359V74.3398C335.354 78.8805 333.547 83.2334 330.335 86.4432C327.124 89.653 322.77 91.4572 318.229 91.4598ZM310.779 85.4598H318.229C320.665 85.4685 323.036 84.6793 324.981 83.213C326.926 81.7467 328.337 79.6839 328.999 77.3398H321.539C319.105 77.3317 316.735 78.1213 314.792 79.5877C312.848 81.0541 311.439 83.1166 310.779 85.4598Z" fill="#5E6175"/>
<path d="M310.37 91.4598H296.51C291.969 91.4572 287.615 89.653 284.404 86.4432C281.192 83.2334 279.385 78.8805 279.38 74.3398V71.3398H293.25C297.789 71.3451 302.14 73.1505 305.35 76.36C308.559 79.5695 310.365 83.921 310.37 88.4598V91.4598ZM285.79 77.3398C286.449 79.6756 287.853 81.7324 289.788 83.1979C291.723 84.6634 294.083 85.4576 296.51 85.4598H304C303.342 83.1249 301.94 81.0684 300.007 79.6028C298.074 78.1372 295.716 77.3426 293.29 77.3398H285.79Z" fill="#5E6175"/>
<path d="M382 95.5201C380.685 94.2077 379.642 92.6489 378.93 90.933C378.219 89.2171 377.853 87.3777 377.853 85.5201C377.853 83.6625 378.219 81.8231 378.93 80.1072C379.642 78.3912 380.685 76.8325 382 75.5201L389.69 67.8301C391.003 69.1432 392.045 70.7021 392.756 72.4179C393.467 74.1338 393.833 75.9728 393.833 77.8301C393.833 79.6873 393.467 81.5264 392.756 83.2422C392.045 84.958 391.003 86.517 389.69 87.8301L382 95.5201Z" fill="url(#paint3_linear_654_3)"/>
<path d="M381.999 95.5185C380.688 94.2027 379.129 93.1586 377.413 92.4463C375.697 91.7339 373.857 91.3672 371.999 91.3672C370.141 91.3672 368.302 91.7339 366.586 92.4463C364.87 93.1586 363.311 94.2027 361.999 95.5185L354.319 103.199C355.63 104.516 357.189 105.561 358.905 106.274C360.621 106.987 362.461 107.354 364.319 107.354C366.178 107.354 368.018 106.987 369.734 106.274C371.45 105.561 373.008 104.516 374.319 103.199L381.999 95.5185Z" fill="url(#paint4_linear_654_3)"/>
<path d="M382 99.7591L379.88 97.6391C378.289 96.0492 377.027 94.1614 376.166 92.0835C375.305 90.0056 374.861 87.7784 374.861 85.5291C374.861 83.2799 375.305 81.0527 376.166 78.9748C377.027 76.8969 378.289 75.009 379.88 73.4191L389.69 63.6191L391.81 65.7391C393.401 67.329 394.663 69.2169 395.524 71.2948C396.385 73.3727 396.829 75.5999 396.829 77.8491C396.829 80.0984 396.385 82.3256 395.524 84.4035C394.663 86.4814 393.401 88.3692 391.81 89.9591L382 99.7591ZM389.4 72.3891L384.13 77.6691C382.414 79.3883 381.308 81.6222 380.981 84.0294C380.654 86.4366 381.124 88.8846 382.32 90.9991L387.59 85.7291C389.309 84.0099 390.418 81.7755 390.749 79.3669C391.079 76.9583 390.612 74.5078 389.42 72.3891H389.4Z" fill="#5E6175"/>
<path d="M352.25 105.32L350.13 103.2L359.93 93.3995C361.52 91.8085 363.408 90.5463 365.486 89.6852C367.563 88.8241 369.791 88.3809 372.04 88.3809C374.289 88.3809 376.516 88.8241 378.594 89.6852C380.672 90.5463 382.56 91.8085 384.15 93.3995L386.27 95.5195L376.46 105.32C374.872 106.913 372.986 108.177 370.908 109.039C368.831 109.902 366.604 110.346 364.355 110.346C362.106 110.346 359.879 109.902 357.801 109.039C355.724 108.177 353.838 106.913 352.25 105.32ZM358.9 102.92C361.016 104.111 363.464 104.576 365.87 104.243C368.275 103.911 370.506 102.8 372.22 101.08L377.49 95.8095C375.374 94.6204 372.927 94.1556 370.522 94.486C368.118 94.8163 365.887 95.9238 364.17 97.6395L358.9 102.92Z" fill="#5E6175"/>
<path d="M417.189 189.059L417.059 183.059C418.679 183.031 420.278 182.691 421.769 182.059L424.139 187.569C421.94 188.508 419.58 189.014 417.189 189.059ZM323.439 186.059H317.439V180.059H323.439V186.059ZM405.999 185.629C404.051 184.248 402.384 182.507 401.089 180.499L406.089 177.249C406.973 178.613 408.106 179.797 409.429 180.739L405.999 185.629ZM432.909 179.789L427.729 176.789C428.544 175.392 429.08 173.85 429.309 172.249L435.249 173.099C434.91 175.46 434.116 177.732 432.909 179.789ZM323.439 170.059H317.439C317.311 167.809 317.509 165.552 318.029 163.359L323.839 164.849C323.46 166.558 323.326 168.313 323.439 170.059ZM404.119 169.349H398.119C398.222 167.664 398.039 165.974 397.579 164.349L403.319 162.599C403.958 164.79 404.228 167.071 404.119 169.349ZM435.439 162.659H429.439V156.659H435.439V162.659ZM328.129 158.159L324.349 153.499C326.205 151.994 328.334 150.86 330.619 150.159L332.379 155.889C330.83 156.367 329.388 157.138 328.129 158.159ZM392.979 157.809C391.681 156.843 390.207 156.14 388.639 155.739L390.139 149.929C392.457 150.518 394.635 151.557 396.549 152.989L392.979 157.809ZM379.429 155.339H373.429V149.339H379.429V155.339ZM363.429 155.339H357.429V149.339H363.429V155.339ZM347.429 155.339H341.429V149.339H347.429V155.339ZM435.429 146.659H429.429V140.659H435.429V146.659ZM435.429 130.659H429.429V124.659H435.429V130.659ZM428.829 115.659C428.339 114.117 427.555 112.684 426.519 111.439L431.129 107.599C432.661 109.44 433.822 111.559 434.549 113.839L428.829 115.659ZM419.829 107.219C418.1 106.864 416.331 106.742 414.569 106.859V100.859C416.81 100.73 419.057 100.908 421.249 101.389L419.829 107.219ZM404.569 106.859H398.569V100.859H404.569V106.859Z" fill="#A9AFC4"/>
<path d="M106.789 354.139C105.291 354.139 103.815 353.77 102.492 353.065C101.17 352.36 100.041 351.34 99.206 350.095C98.371 348.85 97.8553 347.419 97.7044 345.928C97.5535 344.437 97.772 342.931 98.3408 341.545C98.9095 340.158 99.8109 338.932 100.965 337.977C102.12 337.021 103.492 336.364 104.96 336.064C106.429 335.764 107.949 335.83 109.386 336.256C110.823 336.683 112.132 337.456 113.199 338.509C114.494 339.779 115.38 341.405 115.745 343.181C116.111 344.957 115.938 346.802 115.25 348.479C114.562 350.157 113.39 351.591 111.883 352.599C110.376 353.607 108.603 354.143 106.789 354.139ZM106.789 341.879C106.17 341.879 105.564 342.063 105.048 342.408C104.533 342.753 104.132 343.243 103.896 343.816C103.66 344.389 103.599 345.019 103.721 345.627C103.844 346.235 104.144 346.792 104.583 347.229C105.023 347.666 105.583 347.963 106.191 348.081C106.8 348.2 107.43 348.135 108.001 347.895C108.573 347.655 109.06 347.251 109.402 346.733C109.743 346.216 109.923 345.609 109.919 344.989C109.914 344.162 109.582 343.371 108.996 342.789C108.409 342.206 107.616 341.879 106.789 341.879ZM75.0495 401.559C72.5894 401.559 70.1844 400.831 68.1375 399.466C66.0907 398.101 64.4937 396.161 63.5478 393.89C62.6018 391.619 62.3493 389.119 62.8221 386.705C63.2948 384.29 64.4716 382.07 66.2042 380.324C67.9367 378.577 70.1475 377.383 72.5579 376.891C74.9683 376.399 77.4704 376.631 79.7488 377.559C82.0272 378.487 83.98 380.068 85.3611 382.104C86.7422 384.14 87.4897 386.539 87.5094 388.999C87.5213 390.643 87.2079 392.274 86.5871 393.796C85.9664 395.319 85.0506 396.704 83.8926 397.871C82.7345 399.039 81.357 399.965 79.8393 400.598C78.3216 401.231 76.6938 401.558 75.0495 401.559ZM75.0495 382.649C73.7697 382.649 72.5187 383.029 71.4553 383.741C70.3919 384.453 69.564 385.465 69.0766 386.648C68.5891 387.832 68.4641 389.133 68.7175 390.388C68.9708 391.642 69.5911 392.793 70.4995 393.695C71.408 394.596 72.5637 395.207 73.8201 395.451C75.0765 395.694 76.3769 395.559 77.5564 395.063C78.7359 394.566 79.7413 393.73 80.4451 392.661C81.1489 391.593 81.5194 390.339 81.5094 389.059C81.4936 387.355 80.8064 385.726 79.5969 384.526C78.3874 383.326 76.7533 382.651 75.0495 382.649Z" fill="#5E6175"/>
<path d="M417.32 392.169C449.728 392.169 476 365.897 476 333.489C476 301.081 449.728 274.809 417.32 274.809C384.912 274.809 358.64 301.081 358.64 333.489C358.64 365.897 384.912 392.169 417.32 392.169Z" fill="#F5F5F5"/>
<path d="M417.319 395.179C405.118 395.181 393.19 391.564 383.043 384.787C372.897 378.01 364.989 368.376 360.318 357.104C355.647 345.831 354.424 333.427 356.803 321.46C359.182 309.493 365.057 298.499 373.684 289.871C382.311 281.242 393.303 275.366 405.27 272.985C417.237 270.604 429.642 271.825 440.915 276.494C452.188 281.163 461.823 289.07 468.602 299.215C475.381 309.36 478.999 321.287 478.999 333.489C478.983 349.843 472.48 365.524 460.917 377.089C449.353 388.655 433.674 395.16 417.319 395.179ZM417.319 277.809C406.304 277.807 395.535 281.072 386.376 287.19C377.216 293.309 370.077 302.006 365.86 312.183C361.644 322.359 360.54 333.557 362.689 344.361C364.837 355.165 370.141 365.089 377.93 372.878C385.719 380.667 395.643 385.971 406.447 388.119C417.251 390.268 428.449 389.164 438.625 384.948C448.802 380.732 457.499 373.592 463.618 364.432C469.736 355.273 473.001 344.504 472.999 333.489C472.981 318.727 467.108 304.576 456.67 294.138C446.232 283.7 432.081 277.827 417.319 277.809Z" fill="#5E6175"/>
<path d="M385.787 348.64L432.449 301.977L448.25 317.779L401.588 364.441L385.787 348.64Z" fill="#E1830E"/>
<path d="M385.794 317.779L401.595 301.977L448.257 348.639L432.456 364.441L385.794 317.779Z" fill="#E1830E"/>
<defs>
<linearGradient id="paint0_linear_654_3" x1="342.57" y1="309.599" x2="409.61" y2="309.599" gradientUnits="userSpaceOnUse">
<stop stop-color="#CACFDD"/>
<stop offset="1" stop-color="#EEF0F1"/>
</linearGradient>
<linearGradient id="paint1_linear_654_3" x1="342.569" y1="309.6" x2="409.609" y2="309.6" gradientUnits="userSpaceOnUse">
<stop stop-color="#CACFDD"/>
<stop offset="1" stop-color="#EEF0F1"/>
</linearGradient>
<linearGradient id="paint2_linear_654_3" x1="342.57" y1="309.6" x2="409.61" y2="309.6" gradientUnits="userSpaceOnUse">
<stop stop-color="#CACFDD"/>
<stop offset="1" stop-color="#EEF0F1"/>
</linearGradient>
<linearGradient id="paint3_linear_654_3" x1="342.57" y1="309.6" x2="409.61" y2="309.6" gradientUnits="userSpaceOnUse">
<stop stop-color="#CACFDD"/>
<stop offset="1" stop-color="#EEF0F1"/>
</linearGradient>
<linearGradient id="paint4_linear_654_3" x1="342.569" y1="309.599" x2="409.609" y2="309.599" gradientUnits="userSpaceOnUse">
<stop stop-color="#CACFDD"/>
<stop offset="1" stop-color="#EEF0F1"/>
</linearGradient>
</defs>
</svg>
