<svg width="19" height="16" viewBox="0 0 19 16" fill="none" xmlns="http://www.w3.org/2000/svg">
<path d="M17.5968 5.9698C17.127 5.50027 16.6272 5.26551 16.0975 5.26551H14.1033L11.5994 0.770004L10.4 1.4743L12.499 5.26551H6.09685L8.19593 1.4743L6.99646 0.770004L4.49255 5.26551H2.49843C1.95867 5.26551 1.45389 5.50027 0.984092 5.9698C0.824162 6.18958 0.709213 6.39438 0.639243 6.58419C0.559279 6.81396 0.544285 7.04373 0.594263 7.2735L1.98865 14.0767C2.13859 14.6162 2.37348 15.0332 2.69334 15.3279C3.0132 15.6227 3.37804 15.77 3.78786 15.77H14.7031C15.1529 15.77 15.5527 15.6102 15.9026 15.2905C16.2524 14.9708 16.4523 14.5662 16.5023 14.0767L17.8967 7.2735C17.9966 7.02375 18.0216 6.79398 17.9716 6.58419C17.9217 6.3744 17.7967 6.16961 17.5968 5.9698ZM16.5923 6.9738L15.1979 13.777C15.1979 13.8769 15.1629 13.9868 15.0929 14.1067C15.0029 14.2865 14.873 14.3764 14.7031 14.3764H3.89282C3.79286 14.3764 3.6979 14.3165 3.60794 14.1966C3.51798 14.0767 3.44801 13.9368 3.39803 13.777L1.98865 6.9738L2.00365 6.91386C2.02364 6.88389 2.05362 6.86891 2.09361 6.86891C2.09361 6.81896 2.13359 6.774 2.21355 6.73404C2.29352 6.69408 2.38348 6.6741 2.48344 6.6741H16.2024C16.2924 6.6741 16.3723 6.69408 16.4423 6.73404C16.4823 6.75402 16.5323 6.79898 16.5923 6.86891V6.9738Z" fill="black"/>
</svg>
