<svg width="80" height="81" viewBox="0 0 80 81" fill="none" xmlns="http://www.w3.org/2000/svg">
<rect y="0.0737305" width="80" height="80" rx="40" fill="#E8F6E1"/>
<path d="M20.6338 22.5912C20.6338 22.2183 20.767 21.8919 21.0335 21.6122C21.3 21.3325 21.633 21.1926 22.0328 21.1926H23.2319C24.1645 21.1926 24.9772 21.4723 25.6701 22.0318C26.2296 22.458 26.7093 23.0574 27.109 23.83C27.4288 24.4693 27.7752 25.455 28.1482 26.787H56.727C57.1534 26.787 57.5597 26.8803 57.9461 27.0667C58.3325 27.2532 58.6589 27.5196 58.9254 27.8659C59.1919 28.2123 59.3651 28.5985 59.445 29.0248C59.5249 29.451 59.5116 29.8773 59.405 30.3035L55.2481 44.9289C54.9017 46.1277 54.2355 47.1 53.2496 47.846C52.2637 48.5919 51.1445 48.9648 49.8921 48.9648H35.8225C34.5701 48.9648 33.4443 48.5852 32.445 47.826C31.4458 47.0667 30.7863 46.0877 30.4665 44.8889L28.6279 38.2555L25.5102 27.5862C25.1638 26.3874 24.8706 25.5616 24.6308 25.1087C24.4176 24.6825 24.2045 24.3894 23.9913 24.2296C23.7781 24.0697 23.525 23.9898 23.2319 23.9898H22.0328C21.633 23.9898 21.3 23.8566 21.0335 23.5902C20.767 23.3238 20.6338 22.9908 20.6338 22.5912ZM31.3059 37.4963L33.1445 44.1696C33.3044 44.7557 33.6308 45.2419 34.1238 45.6282C34.6168 46.0145 35.183 46.2076 35.8225 46.2076H49.8921C50.5316 46.2076 51.0979 46.0211 51.5908 45.6482C52.0838 45.2752 52.4102 44.7824 52.5701 44.1696L56.727 29.5443H28.9876L31.3059 37.4963ZM40.0594 55.9179C40.0594 56.4507 39.9595 56.9768 39.7596 57.4963C39.5598 58.0158 39.26 58.4687 38.8603 58.8549C38.4606 59.2412 38.0076 59.5409 37.5013 59.7541C36.995 59.9672 36.4687 60.0737 35.9225 60.0737C35.3762 60.0737 34.8433 59.9672 34.3236 59.7541C33.804 59.5409 33.351 59.2412 32.9646 58.8549C32.5783 58.4687 32.2785 58.0158 32.0653 57.4963C31.8521 56.9768 31.7455 56.444 31.7455 55.8979C31.7455 55.3518 31.8521 54.8256 32.0653 54.3195C32.2785 53.8133 32.5783 53.3604 32.9646 52.9608C33.351 52.5612 33.804 52.2615 34.3236 52.0617C34.8433 51.8619 35.3762 51.762 35.9225 51.762C36.4687 51.762 36.995 51.8619 37.5013 52.0617C38.0076 52.2615 38.4606 52.5612 38.8603 52.9608C39.26 53.3604 39.5598 53.8133 39.7596 54.3195C39.9595 54.8256 40.0594 55.3584 40.0594 55.9179ZM37.3014 55.9179C37.3014 55.5183 37.1682 55.1853 36.9017 54.9189C36.6353 54.6525 36.3088 54.5193 35.9225 54.5193C35.5361 54.5193 35.203 54.6525 34.9232 54.9189C34.6434 55.1853 34.5035 55.5116 34.5035 55.8979C34.5035 56.2842 34.6434 56.6105 34.9232 56.8769C35.203 57.1433 35.5361 57.2765 35.9225 57.2765C36.3088 57.2765 36.6353 57.1433 36.9017 56.8769C37.1682 56.6105 37.3014 56.2908 37.3014 55.9179ZM53.9691 55.9179C53.9691 56.4507 53.8625 56.9768 53.6493 57.4963C53.4361 58.0158 53.1297 58.4687 52.73 58.8549C52.3303 59.2412 51.8773 59.5409 51.371 59.7541C50.8647 59.9672 50.3384 60.0737 49.7922 60.0737C49.2459 60.0737 48.713 59.9672 48.1934 59.7541C47.6737 59.5409 47.2207 59.2412 46.8344 58.8549C46.448 58.4687 46.1482 58.0158 45.935 57.4963C45.7219 56.9768 45.6153 56.444 45.6153 55.8979C45.6153 55.3518 45.7219 54.8256 45.935 54.3195C46.1482 53.8133 46.448 53.3604 46.8344 52.9608C47.2207 52.5612 47.6737 52.2615 48.1934 52.0617C48.713 51.8619 49.2459 51.762 49.7922 51.762C50.3384 51.762 50.8647 51.8619 51.371 52.0617C51.8773 52.2615 52.3303 52.5612 52.73 52.9608C53.1297 53.3604 53.4361 53.8133 53.6493 54.3195C53.8625 54.8256 53.9691 55.3584 53.9691 55.9179ZM51.1711 55.9179C51.1711 55.5183 51.0379 55.1853 50.7714 54.9189C50.505 54.6525 50.1785 54.5193 49.7922 54.5193C49.4058 54.5193 49.0794 54.6525 48.8129 54.9189C48.5464 55.1853 48.4132 55.5116 48.4132 55.8979C48.4132 56.2842 48.5464 56.6105 48.8129 56.8769C49.0794 57.1433 49.4058 57.2765 49.7922 57.2765C50.1785 57.2765 50.505 57.1433 50.7714 56.8769C51.0379 56.6105 51.1711 56.2908 51.1711 55.9179Z" fill="#72C949"/>
</svg>
