<svg width="80" height="81" viewBox="0 0 80 81" fill="none" xmlns="http://www.w3.org/2000/svg">
<rect y="0.0737305" width="80" height="80" rx="40" fill="#FBF1E6"/>
<path d="M40.0194 20.713C37.3814 20.713 34.8632 21.2192 32.465 22.2315C30.1467 23.2172 28.0949 24.6025 26.3096 26.3874C24.5242 28.1723 23.1386 30.2235 22.1527 32.5412C21.1401 34.9388 20.6338 37.4496 20.6338 40.0737C20.6338 42.6977 21.1401 45.2086 22.1527 47.6062C23.1386 49.9238 24.5242 51.9751 26.3096 53.76C28.0949 55.5449 30.1467 56.9302 32.465 57.9158C34.8632 58.9282 37.3814 59.4343 40.0194 59.4343C42.6575 59.4343 45.1756 58.9282 47.5738 57.9158C49.8921 56.9302 51.9439 55.5449 53.7292 53.76C55.5146 51.9751 56.9002 49.9238 57.8862 47.6062C58.8987 45.2086 59.405 42.6977 59.405 40.0737C59.405 37.4496 58.8987 34.9388 57.8862 32.5412C56.9002 30.2235 55.5146 28.1723 53.7292 26.3874C51.9439 24.6025 49.8921 23.2172 47.5738 22.2315C45.1756 21.2192 42.6575 20.713 40.0194 20.713ZM40.0194 56.9568C36.955 56.9568 34.1171 56.1842 31.5057 54.6391C28.9476 53.1473 26.9225 51.1226 25.4302 48.5652C23.9114 45.9545 23.1519 43.124 23.1519 40.0737C23.1519 37.0234 23.9114 34.1929 25.4302 31.5822C26.9225 29.0247 28.9476 27.0001 31.5057 25.5083C34.1171 23.9631 36.9484 23.1906 39.9994 23.1906C43.0505 23.1906 45.8951 23.9631 48.5331 25.5083C51.0646 27.0001 53.0764 29.0247 54.5686 31.5822C56.1141 34.1929 56.8869 37.0234 56.8869 40.0737C56.8869 43.124 56.1141 45.9545 54.5686 48.5652C53.0764 51.1226 51.0646 53.1473 48.5331 54.6391C45.8951 56.1842 43.0572 56.9568 40.0194 56.9568ZM33.7441 38.8149C34.4369 38.8149 35.0298 38.5752 35.5227 38.0957C36.0157 37.6161 36.2622 37.0301 36.2622 36.3374C36.2622 35.6448 36.0157 35.052 35.5227 34.5592C35.0298 34.0664 34.4369 33.8199 33.7441 33.8199C33.0512 33.8199 32.465 34.0664 31.9854 34.5592C31.5057 35.052 31.2659 35.6448 31.2659 36.3374C31.2659 37.0301 31.5057 37.6161 31.9854 38.0957C32.465 38.5752 33.0512 38.8149 33.7441 38.8149ZM46.2548 33.8199C45.562 33.8199 44.9757 34.0664 44.4961 34.5592C44.0165 35.052 43.7766 35.6448 43.7766 36.3374C43.7766 37.0301 44.0165 37.6161 44.4961 38.0957C44.9757 38.5752 45.562 38.8149 46.2548 38.8149C46.9476 38.8149 47.5405 38.5752 48.0335 38.0957C48.5264 37.6161 48.7729 37.0301 48.7729 36.3374C48.7729 35.6448 48.5264 35.052 48.0335 34.5592C47.5405 34.0664 46.9476 33.8199 46.2548 33.8199ZM47.5338 46.3274H32.505C32.1586 46.3274 31.8655 46.4473 31.6256 46.6871C31.3858 46.9268 31.2659 47.2199 31.2659 47.5662C31.2659 47.9125 31.3858 48.2056 31.6256 48.4453C31.8655 48.6851 32.1586 48.805 32.505 48.805H47.5338C47.8536 48.805 48.1401 48.6851 48.3932 48.4453C48.6464 48.2056 48.7729 47.9125 48.7729 47.5662C48.7729 47.2199 48.6464 46.9268 48.3932 46.6871C48.1401 46.4473 47.8536 46.3274 47.5338 46.3274Z" fill="#FA8C17"/>
</svg>
