<svg width="21" height="16" viewBox="0 0 21 16" fill="none" xmlns="http://www.w3.org/2000/svg">
<path d="M12.9023 11.1342C12.9023 11.1224 12.9063 11.1007 12.9142 11.0691L14.0157 7.45642C14.0473 7.35764 14.1193 7.2816 14.2319 7.22828C14.3445 7.17496 14.4737 7.14832 14.6198 7.14832C14.7659 7.14832 14.8952 7.17496 15.0078 7.22828C15.1204 7.2816 15.1923 7.35764 15.224 7.45642L16.3314 11.0691C16.3393 11.1007 16.3434 11.1224 16.3434 11.1342C16.3434 11.2369 16.2792 11.3258 16.1509 11.4008C16.0226 11.4758 15.8893 11.5132 15.7511 11.5132C15.5813 11.5132 15.4806 11.4561 15.449 11.3416L15.2477 10.6013H13.998L13.7967 11.3416C13.765 11.4561 13.6643 11.5132 13.4946 11.5132C13.3563 11.5132 13.223 11.4758 13.0947 11.4008C12.9664 11.3259 12.9024 11.2369 12.9024 11.1342H12.9023ZM14.1875 9.89058H15.0522L14.6198 8.30335L14.1875 9.89058Z" fill="black"/>
<path d="M5.47283 5.61271C5.22434 5.61271 5.00566 5.57958 4.81681 5.51331C4.62795 5.44373 4.48051 5.34434 4.37449 5.21512C4.26847 5.08259 4.21545 4.9219 4.21545 4.73304C4.21545 4.55082 4.26847 4.39344 4.37449 4.26091C4.48383 4.12506 4.65611 4.01904 4.89135 3.94284C5.12991 3.86663 5.4397 3.82853 5.82072 3.82853H6.65069C6.98201 3.82853 7.27523 3.86829 7.53035 3.94781C7.78547 4.02732 7.98592 4.1582 8.1317 4.34043C8.2808 4.51934 8.35535 4.76286 8.35535 5.07099C8.35535 5.29629 8.3073 5.48681 8.21122 5.64253C8.11845 5.80156 7.98426 5.93906 7.80866 6.05503C7.69933 6.12792 7.5668 6.18921 7.41107 6.23891C7.25866 6.29192 7.07809 6.33003 6.86936 6.35322C6.66394 6.37972 6.42538 6.39298 6.1537 6.39298H5.76605C5.56394 6.39298 5.41982 6.40126 5.33367 6.41783C5.25084 6.43771 5.18292 6.46587 5.12991 6.50231C5.0769 6.54207 5.03548 6.59177 5.00566 6.65141C4.97584 6.71436 4.96093 6.79885 4.96093 6.90487C4.96093 6.94132 4.96259 6.97611 4.9659 7.00924C4.96922 7.04237 4.97253 7.07716 4.97584 7.11361L4.25024 7.1484C4.2403 7.07882 4.23202 7.00924 4.22539 6.93966C4.22208 6.8734 4.22042 6.80051 4.22042 6.72099C4.22042 6.57189 4.25024 6.44102 4.30988 6.32837C4.36952 6.21903 4.44904 6.12957 4.54843 6.06C4.6147 6.01361 4.68925 5.97551 4.77208 5.94569C4.85491 5.91587 4.95762 5.89433 5.08021 5.88108C5.2028 5.86783 5.35521 5.8612 5.53744 5.8612H5.98472C6.27298 5.8612 6.50987 5.84961 6.69541 5.82641C6.88096 5.80653 7.03005 5.7734 7.1427 5.72702C7.25866 5.68063 7.35309 5.61934 7.42598 5.54313C7.49225 5.47687 7.54195 5.40066 7.57508 5.31452C7.60821 5.22506 7.62478 5.12401 7.62478 5.01136C7.62478 4.86557 7.5933 4.74795 7.53035 4.6585C7.47071 4.56904 7.38954 4.50112 7.28683 4.45473C7.18743 4.40503 7.07644 4.3719 6.95385 4.35533C6.83457 4.33877 6.71529 4.33049 6.59602 4.33049H5.72629C5.61033 4.33049 5.49933 4.33711 5.39331 4.35036C5.2906 4.3603 5.2028 4.3835 5.12991 4.41994C5.06696 4.45308 5.02057 4.49449 4.99075 4.54419C4.96093 4.59389 4.94602 4.65187 4.94602 4.71813C4.94602 4.84072 4.99738 4.93184 5.10009 4.99148C5.20611 5.05112 5.34693 5.08093 5.52253 5.08093C5.65174 5.08093 5.76108 5.06105 5.85054 5.0213C5.94331 4.98154 6.01454 4.9103 6.06424 4.80759C6.11394 4.70157 6.13879 4.55579 6.13879 4.37024V3.29178H5.38834V4.05217L4.72238 4.13169V2.76001H7.79872V3.29178H6.85942V4.3603C6.85942 4.59223 6.83623 4.77612 6.78984 4.91196C6.74677 5.04449 6.68382 5.15714 6.60099 5.24991C6.48171 5.38244 6.32599 5.47687 6.13382 5.53319C5.94165 5.5862 5.72132 5.61271 5.47283 5.61271Z" fill="black"/>
<path d="M17.5351 4.9387H13.5756V2.99536C13.5756 1.44051 12.3107 0.175537 10.7557 0.175537H3.31982C1.76498 0.175537 0.5 1.44055 0.5 2.99536V6.30582C0.5 7.83942 1.73046 9.09094 3.25619 9.12506C3.24603 9.44662 3.21016 9.80486 3.14877 10.1951C3.10728 10.4585 3.20531 10.7174 3.41072 10.8877C3.54854 11.0019 3.71654 11.0613 3.88817 11.0613C3.9736 11.0613 4.05996 11.0464 4.14404 11.0164C4.703 10.8166 5.67535 10.3113 6.17676 9.12565H8.97126V11.0691C8.97126 12.624 10.2363 13.889 11.7911 13.889H14.6782C15.1797 15.0746 16.1519 15.5798 16.711 15.7798C16.7931 15.8092 16.8796 15.8243 16.9667 15.8244C17.1384 15.8244 17.3064 15.7651 17.4442 15.6509C17.6498 15.4807 17.7476 15.2217 17.7061 14.9583C17.6448 14.5682 17.6089 14.2098 17.5987 13.8882C19.1245 13.8543 20.3549 12.6027 20.3549 11.0691V7.75868C20.3549 6.20372 19.0899 4.9387 17.5351 4.9387ZM19.5793 11.069C19.5793 12.1963 18.6623 13.1134 17.5351 13.1134H17.2117C17.1114 13.1134 17.0149 13.1523 16.9427 13.2219C16.8704 13.2915 16.828 13.3864 16.8242 13.4866C16.8074 13.9344 16.844 14.4552 16.9333 15.0352C16.3687 14.8248 15.6447 14.3677 15.3136 13.3782C15.2878 13.3011 15.2385 13.234 15.1725 13.1865C15.1065 13.139 15.0273 13.1134 14.946 13.1134H11.7911C10.6639 13.1134 9.74685 12.1963 9.74685 11.069V7.75853C9.74685 7.41087 9.83565 7.06764 10.0034 6.76601C10.0282 6.72152 10.044 6.67258 10.0499 6.62198C10.0557 6.57139 10.0516 6.52014 10.0376 6.47116C10.0236 6.42218 10.0002 6.37643 9.96853 6.33652C9.93689 6.29661 9.89769 6.26333 9.85318 6.23858C9.66611 6.13434 9.42994 6.20174 9.32574 6.38885C9.09385 6.80557 8.9713 7.2791 8.9713 7.75853V8.35006H5.90891C5.82759 8.35006 5.74832 8.37562 5.68232 8.42314C5.61632 8.47066 5.56693 8.53772 5.54113 8.61485C5.21031 9.60434 4.48622 10.0617 3.92164 10.2719C4.01071 9.69186 4.0474 9.17109 4.03072 8.72331C4.02695 8.62304 3.98446 8.52812 3.91217 8.45852C3.83989 8.38892 3.74344 8.35004 3.64309 8.35006H3.31982C2.19263 8.35006 1.27558 7.43298 1.27558 6.30582V2.99536C1.27558 1.86817 2.19263 0.95112 3.31982 0.95112H10.7557C11.8829 0.95112 12.8 1.86817 12.8 2.99536V4.93886H12.2501C12.0359 4.93886 11.8623 5.11247 11.8623 5.32665C11.8623 5.54082 12.0359 5.71444 12.2501 5.71444H17.5351C18.6623 5.71444 19.5793 6.63149 19.5793 7.75868V11.069Z" fill="black"/>
</svg>
