<svg width="12" height="11" viewBox="0 0 12 11" fill="none" xmlns="http://www.w3.org/2000/svg">
<path d="M6 2.80469C7.47656 2.80469 8.69531 4.02344 8.69531 5.5C8.69531 7 7.47656 8.19531 6 8.19531C4.5 8.19531 3.30469 7 3.30469 5.5C3.30469 4.02344 4.5 2.80469 6 2.80469ZM6 7.25781C6.96094 7.25781 7.73438 6.48438 7.73438 5.5C7.73438 4.53906 6.96094 3.76562 6 3.76562C5.01562 3.76562 4.24219 4.53906 4.24219 5.5C4.24219 6.48438 5.03906 7.25781 6 7.25781ZM9.42188 2.71094C9.42188 3.0625 9.14062 3.34375 8.78906 3.34375C8.4375 3.34375 8.15625 3.0625 8.15625 2.71094C8.15625 2.35938 8.4375 2.07812 8.78906 2.07812C9.14062 2.07812 9.42188 2.35938 9.42188 2.71094ZM11.2031 3.34375C11.25 4.21094 11.25 6.8125 11.2031 7.67969C11.1562 8.52344 10.9688 9.25 10.3594 9.88281C9.75 10.4922 9 10.6797 8.15625 10.7266C7.28906 10.7734 4.6875 10.7734 3.82031 10.7266C2.97656 10.6797 2.25 10.4922 1.61719 9.88281C1.00781 9.25 0.820312 8.52344 0.773438 7.67969C0.726562 6.8125 0.726562 4.21094 0.773438 3.34375C0.820312 2.5 1.00781 1.75 1.61719 1.14062C2.25 0.53125 2.97656 0.34375 3.82031 0.296875C4.6875 0.25 7.28906 0.25 8.15625 0.296875C9 0.34375 9.75 0.53125 10.3594 1.14062C10.9688 1.75 11.1562 2.5 11.2031 3.34375ZM10.0781 8.59375C10.3594 7.91406 10.2891 6.27344 10.2891 5.5C10.2891 4.75 10.3594 3.10938 10.0781 2.40625C9.89062 1.96094 9.53906 1.58594 9.09375 1.42188C8.39062 1.14062 6.75 1.21094 6 1.21094C5.22656 1.21094 3.58594 1.14062 2.90625 1.42188C2.4375 1.60938 2.08594 1.96094 1.89844 2.40625C1.61719 3.10938 1.6875 4.75 1.6875 5.5C1.6875 6.27344 1.61719 7.91406 1.89844 8.59375C2.08594 9.0625 2.4375 9.41406 2.90625 9.60156C3.58594 9.88281 5.22656 9.8125 6 9.8125C6.75 9.8125 8.39062 9.88281 9.09375 9.60156C9.53906 9.41406 9.91406 9.0625 10.0781 8.59375Z" fill="black"/>
<a href="https://www.figma.com/design/5wYyBEOdIJCiuAhkgiCCCG/Jeevaamirdham?node-id=1-1130">
<rect fill="black" fill-opacity="0" x="0.25" y="-0.9" width="10.5" height="13.8"/>
</a>
</svg>
