<svg width="80" height="81" viewBox="0 0 80 81" fill="none" xmlns="http://www.w3.org/2000/svg">
<rect y="0.693848" width="80" height="80" rx="40" fill="#E8F6E1"/>
<path d="M20.6338 23.2113C20.6338 22.8384 20.767 22.512 21.0335 22.2323C21.3 21.9526 21.633 21.8127 22.0328 21.8127H23.2319C24.1645 21.8127 24.9772 22.0924 25.6701 22.6519C26.2296 23.0781 26.7093 23.6775 27.109 24.4501C27.4288 25.0895 27.7752 26.0751 28.1482 27.4071H56.727C57.1534 27.4071 57.5597 27.5004 57.9461 27.6869C58.3325 27.8733 58.6589 28.1397 58.9254 28.4861C59.1919 28.8324 59.3651 29.2187 59.445 29.6449C59.5249 30.0711 59.5116 30.4974 59.405 30.9236L55.2481 45.549C54.9017 46.7478 54.2355 47.7202 53.2496 48.4661C52.2637 49.212 51.1445 49.585 49.8921 49.585H35.8225C34.5701 49.585 33.4443 49.2053 32.445 48.4461C31.4458 47.6869 30.7863 46.7078 30.4665 45.509L28.6279 38.8757L25.5102 28.2063C25.1638 27.0075 24.8706 26.1817 24.6308 25.7288C24.4176 25.3026 24.2045 25.0095 23.9913 24.8497C23.7781 24.6898 23.525 24.6099 23.2319 24.6099H22.0328C21.633 24.6099 21.3 24.4767 21.0335 24.2103C20.767 23.9439 20.6338 23.6109 20.6338 23.2113ZM31.3059 38.1164L33.1445 44.7898C33.3044 45.3758 33.6308 45.862 34.1238 46.2483C34.6168 46.6346 35.183 46.8277 35.8225 46.8277H49.8921C50.5316 46.8277 51.0979 46.6412 51.5908 46.2683C52.0838 45.8953 52.4102 45.4025 52.5701 44.7898L56.727 30.1644H28.9876L31.3059 38.1164ZM40.0594 56.538C40.0594 57.0708 39.9595 57.5969 39.7596 58.1164C39.5598 58.6359 39.26 59.0888 38.8603 59.4751C38.4606 59.8613 38.0076 60.161 37.5013 60.3742C36.995 60.5873 36.4687 60.6938 35.9225 60.6938C35.3762 60.6938 34.8433 60.5873 34.3236 60.3742C33.804 60.161 33.351 59.8613 32.9646 59.4751C32.5783 59.0888 32.2785 58.6359 32.0653 58.1164C31.8521 57.5969 31.7455 57.0641 31.7455 56.518C31.7455 55.9719 31.8521 55.4458 32.0653 54.9396C32.2785 54.4334 32.5783 53.9806 32.9646 53.581C33.351 53.1814 33.804 52.8817 34.3236 52.6819C34.8433 52.4821 35.3762 52.3822 35.9225 52.3822C36.4687 52.3822 36.995 52.4821 37.5013 52.6819C38.0076 52.8817 38.4606 53.1814 38.8603 53.581C39.26 53.9806 39.5598 54.4334 39.7596 54.9396C39.9595 55.4458 40.0594 55.9786 40.0594 56.538ZM37.3014 56.538C37.3014 56.1384 37.1682 55.8054 36.9017 55.539C36.6353 55.2726 36.3088 55.1394 35.9225 55.1394C35.5361 55.1394 35.203 55.2726 34.9232 55.539C34.6434 55.8054 34.5035 56.1317 34.5035 56.518C34.5035 56.9043 34.6434 57.2306 34.9232 57.497C35.203 57.7634 35.5361 57.8966 35.9225 57.8966C36.3088 57.8966 36.6353 57.7634 36.9017 57.497C37.1682 57.2306 37.3014 56.911 37.3014 56.538ZM53.9691 56.538C53.9691 57.0708 53.8625 57.5969 53.6493 58.1164C53.4361 58.6359 53.1297 59.0888 52.73 59.4751C52.3303 59.8613 51.8773 60.161 51.371 60.3742C50.8647 60.5873 50.3384 60.6938 49.7922 60.6938C49.2459 60.6938 48.713 60.5873 48.1934 60.3742C47.6737 60.161 47.2207 59.8613 46.8344 59.4751C46.448 59.0888 46.1482 58.6359 45.935 58.1164C45.7219 57.5969 45.6153 57.0641 45.6153 56.518C45.6153 55.9719 45.7219 55.4458 45.935 54.9396C46.1482 54.4334 46.448 53.9806 46.8344 53.581C47.2207 53.1814 47.6737 52.8817 48.1934 52.6819C48.713 52.4821 49.2459 52.3822 49.7922 52.3822C50.3384 52.3822 50.8647 52.4821 51.371 52.6819C51.8773 52.8817 52.3303 53.1814 52.73 53.581C53.1297 53.9806 53.4361 54.4334 53.6493 54.9396C53.8625 55.4458 53.9691 55.9786 53.9691 56.538ZM51.1711 56.538C51.1711 56.1384 51.0379 55.8054 50.7714 55.539C50.505 55.2726 50.1785 55.1394 49.7922 55.1394C49.4058 55.1394 49.0794 55.2726 48.8129 55.539C48.5464 55.8054 48.4132 56.1317 48.4132 56.518C48.4132 56.9043 48.5464 57.2306 48.8129 57.497C49.0794 57.7634 49.4058 57.8966 49.7922 57.8966C50.1785 57.8966 50.505 57.7634 50.7714 57.497C51.0379 57.2306 51.1711 56.911 51.1711 56.538Z" fill="#72C949"/>
</svg>
