<svg width="15" height="19" viewBox="0 0 15 19" fill="none" xmlns="http://www.w3.org/2000/svg">
<path d="M2.02616 18.5146C1.57816 18.5146 1.19682 18.3573 0.882156 18.0426C0.56749 17.728 0.410156 17.347 0.410156 16.8996V8.12965C0.410156 7.68298 0.56749 7.30198 0.882156 6.98665C1.19682 6.67198 1.57816 6.51465 2.02616 6.51465H3.41016V4.51465C3.41016 3.40065 3.79849 2.45565 4.57516 1.67965C5.35116 0.902982 6.29616 0.514648 7.41016 0.514648C8.52416 0.514648 9.46949 0.902982 10.2462 1.67965C11.0228 2.45632 11.4108 3.40132 11.4102 4.51465V6.51465H12.7952C13.2418 6.51465 13.6228 6.67198 13.9382 6.98665C14.2528 7.30132 14.4102 7.68265 14.4102 8.13065V16.8996C14.4102 17.3463 14.2528 17.7273 13.9382 18.0426C13.6235 18.3573 13.2425 18.5146 12.7952 18.5146H2.02616ZM2.02616 17.5146H12.7952C12.9745 17.5146 13.1218 17.457 13.2372 17.3416C13.3525 17.2263 13.4102 17.079 13.4102 16.8996V8.12965C13.4102 7.95031 13.3525 7.80298 13.2372 7.68765C13.1218 7.57232 12.9745 7.51465 12.7952 7.51465H2.02516C1.84582 7.51465 1.69849 7.57232 1.58316 7.68765C1.46782 7.80298 1.41016 7.95065 1.41016 8.13065V16.8996C1.41016 17.079 1.46782 17.2263 1.58316 17.3416C1.69849 17.457 1.84616 17.5146 2.02616 17.5146ZM7.41016 14.0146C7.83216 14.0146 8.18749 13.87 8.47616 13.5806C8.76549 13.292 8.91016 12.9366 8.91016 12.5146C8.91016 12.0926 8.76549 11.7373 8.47616 11.4486C8.18682 11.16 7.83149 11.0153 7.41016 11.0146C6.98882 11.014 6.63349 11.1586 6.34416 11.4486C6.05482 11.7373 5.91016 12.0926 5.91016 12.5146C5.91016 12.9366 6.05482 13.292 6.34416 13.5806C6.63282 13.87 6.98816 14.0146 7.41016 14.0146ZM4.41016 6.51465H10.4102V4.51465C10.4102 3.68132 10.1185 2.97298 9.53516 2.38965C8.95182 1.80632 8.24349 1.51465 7.41016 1.51465C6.57682 1.51465 5.86849 1.80632 5.28516 2.38965C4.70182 2.97298 4.41016 3.68132 4.41016 4.51465V6.51465Z" fill="#444444"/>
</svg>
