<svg width="17" height="17" viewBox="0 0 17 17" fill="none" xmlns="http://www.w3.org/2000/svg">
<path d="M12.1523 16.5H12.1683C12.6052 16.5 12.9835 16.3455 13.3032 16.0365L15.477 13.8626C15.5516 13.788 15.6076 13.7001 15.6449 13.5989C15.6822 13.4977 15.7008 13.3964 15.7008 13.2952C15.7008 13.194 15.6822 13.0927 15.6449 12.9915C15.6076 12.8903 15.5516 12.8024 15.477 12.7278L12.2642 9.53097C12.1896 9.45638 12.1044 9.39777 12.0085 9.35514C11.9126 9.31252 11.8114 9.29121 11.7048 9.29121C11.5982 9.29121 11.497 9.31252 11.4011 9.35514C11.3052 9.39777 11.2199 9.45638 11.1454 9.53097L9.86663 10.8097C9.45105 10.6818 9.0621 10.5326 8.6998 10.3621C8.18831 10.117 7.77806 9.83999 7.46903 9.53097C7.16001 9.22194 6.88295 8.81169 6.63786 8.3002C6.46737 7.9379 6.31818 7.54895 6.19031 7.13337L7.46903 5.85465C7.54362 5.78005 7.60223 5.69481 7.64486 5.5989C7.68748 5.503 7.70879 5.40176 7.70879 5.29521C7.70879 5.18865 7.68748 5.08741 7.64486 4.99151C7.60223 4.89561 7.54362 4.81036 7.46903 4.73576L4.27223 1.53896C4.11239 1.37912 3.92324 1.2992 3.7048 1.2992C3.48635 1.2992 3.2972 1.37912 3.13736 1.53896L0.963536 3.6968C0.814352 3.85664 0.6998 4.03513 0.61988 4.23227C0.53996 4.4294 0.5 4.63453 0.5 4.84765C0.510656 5.45505 0.57992 6.10506 0.707792 6.7977C0.910256 7.85265 1.22994 8.85431 1.66683 9.8027C2.24226 11.0388 3.0015 12.1257 3.94456 13.0634C4.88761 14.0012 5.97186 14.7577 7.1973 15.3332C8.14569 15.7807 9.15268 16.1004 10.2183 16.2922C10.9003 16.4201 11.545 16.4893 12.1523 16.5ZM3.6968 3.23327L5.77472 5.29521L4.73576 6.33417C4.63986 6.43007 4.57326 6.54196 4.53596 6.66983C4.49867 6.7977 4.496 6.92557 4.52797 7.05345C4.60256 7.44772 4.74109 7.89527 4.94356 8.3961C5.31652 9.35514 5.78005 10.1117 6.33417 10.6658C6.88828 11.2199 7.64486 11.6835 8.6039 12.0564C9.09407 12.2483 9.54163 12.3868 9.94655 12.472C10.0744 12.504 10.2023 12.5013 10.3302 12.464C10.458 12.4267 10.5699 12.3601 10.6658 12.2642L11.7048 11.2253L13.7667 13.3032L12.1683 14.9016C11.6355 14.8909 11.0708 14.8323 10.474 14.7258C9.56826 14.5446 8.70513 14.2676 7.88461 13.8946C6.81901 13.3938 5.88129 12.7384 5.07143 11.9286C4.26157 11.1187 3.60623 10.181 3.10539 9.11539C2.72178 8.29487 2.44472 7.42641 2.27423 6.50999C2.16767 5.91325 2.10906 5.35381 2.0984 4.83167L3.71279 3.23327H3.6968ZM14.9016 7.69281H16.5C16.5 6.35015 16.1803 5.12471 15.541 4.01648C14.9229 2.92957 14.0704 2.07709 12.9835 1.45904C11.8753 0.819681 10.6445 0.5 9.29121 0.5V2.0984C10.3568 2.0984 11.3212 2.34349 12.1843 2.83367C13.0261 3.30253 13.6868 3.95788 14.1663 4.7997C14.6565 5.66284 14.9016 6.62721 14.9016 7.69281ZM9.30719 5.29521C10.1384 5.29521 10.7458 5.48701 11.1294 5.87063C11.513 6.25425 11.7048 6.86164 11.7048 7.69281H13.3032C13.3032 6.40343 12.9595 5.41508 12.2722 4.72777C11.5849 4.04046 10.5966 3.6968 9.30719 3.6968V5.29521Z" fill="#F09300"/>
</svg>
