<svg width="17" height="18" viewBox="0 0 17 18" fill="none" xmlns="http://www.w3.org/2000/svg">
<path d="M16.8789 9.10889C16.8789 13.6577 13.1934 17.3433 8.64453 17.3433C7.78125 17.3433 6.95117 17.2437 6.1875 16.978C6.51953 16.4468 7.01758 15.5503 7.2168 14.8198C7.31641 14.4546 7.71484 12.8608 7.71484 12.8608C7.98047 13.3921 8.77734 13.8237 9.60742 13.8237C12.0977 13.8237 13.8906 11.5327 13.8906 8.71045C13.8906 5.98779 11.666 3.9292 8.81055 3.9292C5.25781 3.9292 3.36523 6.31982 3.36523 8.90967C3.36523 10.1382 3.99609 11.6323 5.02539 12.1304C5.19141 12.1968 5.29102 12.1636 5.32422 11.9976C5.32422 11.8979 5.49023 11.3335 5.55664 11.0679C5.55664 11.0015 5.55664 10.9019 5.49023 10.8354C5.1582 10.437 4.89258 9.67334 4.89258 8.94287C4.89258 7.1499 6.25391 5.39014 8.61133 5.39014C10.6035 5.39014 12.0312 6.75146 12.0312 8.74365C12.0312 10.9683 10.9023 12.4956 9.44141 12.4956C8.64453 12.4956 8.04688 11.8315 8.21289 11.0347C8.44531 10.0386 8.91016 8.97607 8.91016 8.27881C8.91016 7.64795 8.57812 7.1167 7.88086 7.1167C7.05078 7.1167 6.38672 7.97998 6.38672 9.10889C6.38672 9.83936 6.61914 10.3374 6.61914 10.3374C6.61914 10.3374 5.82227 13.7905 5.65625 14.4214C5.49023 15.1519 5.55664 16.1479 5.62305 16.7788C2.56836 15.5835 0.410156 12.6284 0.410156 9.10889C0.410156 4.56006 4.0957 0.874512 8.64453 0.874512C13.1934 0.874512 16.8789 4.56006 16.8789 9.10889Z" fill="#999999"/>
</svg>
