<svg width="17" height="17" viewBox="0 0 17 17" fill="none" xmlns="http://www.w3.org/2000/svg">
<g clip-path="url(#clip0_57_6816)">
<path d="M8.01776 0.51947C9.0727 0.51947 10.0904 0.721935 11.0707 1.12686C12.0511 1.53179 12.9169 2.10988 13.6681 2.86113C14.4194 3.61238 14.9974 4.47818 15.4024 5.45853C15.8073 6.43888 16.0098 7.4592 16.0098 8.51947C16.0098 9.57974 15.8073 10.6001 15.4024 11.5804C14.9974 12.5608 14.4194 13.4266 13.6681 14.1778C12.9169 14.9291 12.0511 15.5071 11.0707 15.9121C10.0904 16.317 9.07004 16.5195 8.00977 16.5195C6.94949 16.5195 5.92918 16.317 4.94883 15.9121C3.96847 15.5071 3.10267 14.9291 2.35142 14.1778C1.60018 13.4266 1.02209 12.5608 0.617158 11.5804C0.21223 10.6001 0.00976562 9.57974 0.00976562 8.51947C0.00976562 7.4592 0.21223 6.43888 0.617158 5.45853C1.02209 4.47818 1.60018 3.61238 2.35142 2.86113C3.10267 2.10988 3.96847 1.53179 4.94883 1.12686C5.92918 0.721935 6.94683 0.51947 8.00177 0.51947H8.01776ZM4.51726 8.01597C4.37873 8.01597 4.25885 8.06659 4.15762 8.16782C4.05639 8.26905 4.00577 8.38627 4.00577 8.51947C4.00577 8.65267 4.05639 8.76989 4.15762 8.87112C4.25885 8.97235 4.37873 9.02297 4.51726 9.02297H10.3035L8.16161 11.1648C8.10833 11.2074 8.06837 11.2607 8.04173 11.3247C8.01509 11.3886 8.00177 11.4525 8.00177 11.5165C8.00177 11.5804 8.01509 11.6443 8.04173 11.7083C8.06837 11.7722 8.10567 11.8282 8.15362 11.8761C8.20157 11.9241 8.25752 11.9614 8.32145 11.988C8.38539 12.0146 8.44933 12.028 8.51326 12.028C8.5772 12.028 8.64113 12.0146 8.70507 11.988C8.76901 11.9614 8.82229 11.9214 8.86491 11.8681L11.8699 8.87911C11.9125 8.82583 11.9472 8.76989 11.9738 8.71128C12.0004 8.65267 12.0138 8.58873 12.0138 8.51947C12.0138 8.45021 12.0004 8.38627 11.9738 8.32766C11.9472 8.26905 11.9125 8.21311 11.8699 8.15983L8.86491 5.17082C8.82229 5.11754 8.76901 5.07758 8.70507 5.05094C8.64113 5.0243 8.5772 5.01098 8.51326 5.01098C8.44933 5.01098 8.38539 5.0243 8.32145 5.05094C8.25752 5.07758 8.20157 5.11487 8.15362 5.16283C8.10567 5.21078 8.06837 5.26672 8.04173 5.33066C8.01509 5.3946 8.00177 5.45853 8.00177 5.52247C8.00177 5.5864 8.01509 5.65034 8.04173 5.71428C8.06837 5.77821 8.10833 5.83149 8.16161 5.87412L10.3035 8.01597H4.51726Z" fill="#CCCCCC"/>
</g>
<defs>
<clipPath id="clip0_57_6816">
<rect width="16.02" height="16" fill="white" transform="matrix(1 0 0 -1 0 16.5195)"/>
</clipPath>
</defs>
</svg>
