<svg width="15" height="16" viewBox="0 0 15 16" fill="none" xmlns="http://www.w3.org/2000/svg">
<path d="M14.0379 12.9623L11.3256 10.25C11.7352 9.71057 12.0499 9.12116 12.2697 8.4818C12.4895 7.84244 12.5994 7.1781 12.5994 6.48879C12.5994 5.65962 12.442 4.86542 12.1273 4.10617C11.8126 3.34693 11.3606 2.67511 10.7712 2.09069C10.1818 1.50627 9.50994 1.05672 8.75569 0.742039C8.00145 0.427354 7.20974 0.270011 6.38057 0.270011C5.5514 0.270011 4.75719 0.427354 3.99795 0.742039C3.23871 1.05672 2.56439 1.50877 1.97498 2.09818C1.18577 2.88739 0.646305 3.82645 0.356595 4.91537C0.0868643 5.96432 0.0868643 7.01327 0.356595 8.06222C0.646305 9.15113 1.18577 10.0902 1.97498 10.8794C2.56439 11.4688 3.23871 11.9209 3.99795 12.2355C4.75719 12.5502 5.5514 12.7076 6.38057 12.7076C7.05989 12.7076 7.72173 12.5977 8.36608 12.3779C9.01044 12.1581 9.60235 11.8434 10.1418 11.4338L12.8541 14.1461C13.0139 14.306 13.2087 14.3859 13.4385 14.3859C13.6683 14.3859 13.8656 14.306 14.0304 14.1461C14.1953 13.9863 14.2777 13.789 14.2777 13.5542C14.2777 13.3195 14.1978 13.1222 14.0379 12.9623ZM3.15879 9.69559C2.57937 9.11616 2.18477 8.43185 1.97498 7.64264C1.77518 6.87341 1.77518 6.10418 1.97498 5.33495C2.18477 4.54574 2.57937 3.86142 3.15879 3.282C3.58836 2.85243 4.08037 2.52276 4.63482 2.29299C5.18926 2.06322 5.76868 1.94833 6.37308 1.94833C6.97747 1.94833 7.55689 2.06322 8.11134 2.29299C8.66578 2.52276 9.15779 2.84993 9.58736 3.27451C10.0169 3.69908 10.3466 4.18859 10.5764 4.74304C10.8061 5.29748 10.921 5.8794 10.921 6.48879C10.921 7.09818 10.8061 7.6776 10.5764 8.22705C10.3466 8.7765 10.0169 9.26601 9.58736 9.69559C9.15779 10.1252 8.66828 10.4548 8.11883 10.6846C7.56938 10.9144 6.98996 11.0293 6.38057 11.0293C5.77118 11.0293 5.18926 10.9144 4.63482 10.6846C4.08037 10.4548 3.58836 10.1252 3.15879 9.69559Z" fill="black"/>
</svg>
