<svg width="68" height="68" viewBox="0 0 68 68" fill="none" xmlns="http://www.w3.org/2000/svg">
<path fill-rule="evenodd" clip-rule="evenodd" d="M34 68C52.7777 68 68 52.7777 68 34C68 15.2223 52.7777 0 34 0C15.2223 0 0 15.2223 0 34C0 52.7777 15.2223 68 34 68ZM45.0365 40.276V23.6094L26.3698 27.6094V38.7294C25.7698 38.436 25.0898 38.276 24.3698 38.276C23.1321 38.276 21.9451 38.7677 21.07 39.6429C20.1948 40.518 19.7031 41.705 19.7031 42.9427C19.7031 44.1804 20.1948 45.3674 21.07 46.2425C21.9451 47.1177 23.1321 47.6094 24.3698 47.6094C25.6075 47.6094 26.7945 47.1177 27.6696 46.2425C28.5448 45.3674 29.0365 44.1804 29.0365 42.9427V31.076L42.3698 28.236V36.0627C41.7698 35.7694 41.0898 35.6094 40.3698 35.6094C39.1321 35.6094 37.9451 36.101 37.07 36.9762C36.1948 37.8514 35.7031 39.0384 35.7031 40.276C35.7031 41.5137 36.1948 42.7007 37.07 43.5759C37.9451 44.451 39.1321 44.9427 40.3698 44.9427C41.6075 44.9427 42.7945 44.451 43.6696 43.5759C44.5448 42.7007 45.0365 41.5137 45.0365 40.276Z" fill="white"/>
</svg>
