<svg width="16" height="16" viewBox="0 0 16 16" fill="none" xmlns="http://www.w3.org/2000/svg">
<path d="M10.3946 9.02675C11.0239 8.56721 11.5134 8.03274 11.8631 7.42335C12.2427 6.75402 12.4325 6.03474 12.4325 5.26551C12.4325 4.46631 12.2177 3.71206 11.7882 3.00277C11.3686 2.32345 10.7991 1.78399 10.0799 1.38439C9.3506 0.9748 8.56388 0.770004 7.71973 0.770004C6.87557 0.770004 6.08886 0.9748 5.35959 1.38439C4.64031 1.78399 4.07088 2.32345 3.65129 3.00277C3.22172 3.71206 3.00694 4.46631 3.00694 5.26551C3.00694 5.99478 3.19675 6.70407 3.57637 7.39338C3.946 8.03274 4.43551 8.5772 5.0449 9.02675C4.10584 9.3764 3.27167 9.88589 2.5424 10.5552C1.81313 11.2245 1.2487 11.9988 0.849097 12.8779C0.429517 13.797 0.219727 14.761 0.219727 15.77H1.61333C1.61333 14.7211 1.89305 13.737 2.45249 12.818C3.00194 11.9288 3.73621 11.2196 4.65529 10.6901C5.61433 10.1506 6.63581 9.88089 7.71973 9.88089C8.80364 9.88089 9.82512 10.1506 10.7842 10.6901C11.7032 11.2196 12.4375 11.9288 12.987 12.818C13.5464 13.737 13.8261 14.7211 13.8261 15.77H15.2197C15.2197 14.761 15.0099 13.797 14.5904 12.8779C14.1908 11.9988 13.6263 11.2245 12.897 10.5552C12.1678 9.88589 11.3336 9.3764 10.3946 9.02675ZM7.72722 2.16361C8.32662 2.16361 8.87857 2.30597 9.38306 2.59068C9.88756 2.8754 10.2897 3.26251 10.5894 3.75202C10.8891 4.24153 11.0389 4.78099 11.0389 5.3704C11.0389 5.93983 10.8965 6.4718 10.6118 6.96631C10.3271 7.46081 9.93501 7.85292 9.43551 8.14263C8.91603 8.44233 8.3466 8.59218 7.72722 8.59218C7.11783 8.59218 6.56089 8.44982 6.05639 8.16511C5.55189 7.88039 5.1498 7.49328 4.8501 7.00377C4.5504 6.51426 4.40055 5.9723 4.40055 5.3779C4.40055 4.78349 4.5504 4.24153 4.8501 3.75202C5.1498 3.26251 5.55189 2.8754 6.05639 2.59068C6.56089 2.30597 7.11783 2.16361 7.72722 2.16361Z" fill="black"/>
</svg>
